<svg xmlns="http://www.w3.org/2000/svg" viewBox="0 0 120 30"><defs><style>.cls-1{opacity:0.57;}.cls-2{fill:#3d6be5;opacity:0;}.cls-3{fill:#fff;}.cls-4{opacity:0.2;}.cls-5{fill:#f04134;}.cls-6{fill:#d73435;}</style></defs><title>关闭-深色主题</title><g id="layer1"><g id="active-center" class="cls-1"><rect id="底图" class="cls-2" width="30" height="30" rx="4"/><rect class="cls-3" x="8" y="14.6" width="14" height="1" rx="0.5" transform="translate(15.07 -6.19) rotate(45)"/><rect class="cls-3" x="8" y="14.6" width="14" height="1" rx="0.5" transform="translate(-6.28 15.03) rotate(-45)"/></g><g id="inactive-center" class="cls-4"><rect id="底图-2" data-name="底图" class="cls-2" x="90" width="30" height="30" rx="4"/><rect class="cls-3" x="98" y="14.6" width="14" height="1" rx="0.5" transform="translate(41.43 -69.82) rotate(45)"/><rect class="cls-3" x="98" y="14.6" width="14" height="1" rx="0.5" transform="translate(20.08 78.67) rotate(-45)"/></g><g id="hover-center"><rect id="底图-3" data-name="底图" class="cls-5" x="30" width="30" height="30" rx="4"/><rect class="cls-3" x="38" y="14.6" width="14" height="1" rx="0.5" transform="translate(23.85 -27.4) rotate(45)"/><rect class="cls-3" x="38" y="14.6" width="14" height="1" rx="0.5" transform="translate(2.51 36.24) rotate(-45)"/></g><g id="pressed-center"><rect id="底图-4" data-name="底图" class="cls-6" x="60" width="30" height="30" rx="4"/><rect class="cls-3" x="68" y="14.6" width="14" height="1" rx="0.5" transform="translate(32.64 -48.61) rotate(45)"/><rect class="cls-3" x="68" y="14.6" width="14" height="1" rx="0.5" transform="translate(11.29 57.45) rotate(-45)"/></g></g></svg>