<svg xmlns="http://www.w3.org/2000/svg" viewBox="0 0 120 30"><defs><style>.cls-1{opacity:0.57;}.cls-2,.cls-5{fill:#3d6be5;}.cls-2{opacity:0;}.cls-3{fill:#fff;}.cls-4{opacity:0.2;}.cls-6{fill:#3257ca;}</style></defs><title>更多-深色主题</title><g id="layer1"><g id="active-center" class="cls-1"><rect id="底图" class="cls-2" width="30" height="30" rx="4"/><rect class="cls-3" x="10" y="11" width="10" height="1" rx="0.5"/><rect class="cls-3" x="10" y="15" width="10" height="1" rx="0.5"/><rect class="cls-3" x="10" y="19" width="10" height="1" rx="0.5"/></g><g id="inactive-center" class="cls-4"><rect id="底图-2" data-name="底图" class="cls-2" x="90" width="30" height="30" rx="4"/><rect class="cls-3" x="100" y="11" width="10" height="1" rx="0.5"/><rect class="cls-3" x="100" y="15" width="10" height="1" rx="0.5"/><rect class="cls-3" x="100" y="19" width="10" height="1" rx="0.5"/></g><g id="hover-center"><rect id="底图-3" data-name="底图" class="cls-5" x="30" width="30" height="30" rx="4"/><rect class="cls-3" x="40" y="11" width="10" height="1" rx="0.5"/><rect class="cls-3" x="40" y="15" width="10" height="1" rx="0.5"/><rect class="cls-3" x="40" y="19" width="10" height="1" rx="0.5"/></g><g id="pressed-center"><rect id="底图-4" data-name="底图" class="cls-6" x="60" width="30" height="30" rx="4"/><rect class="cls-3" x="70" y="11" width="10" height="1" rx="0.5"/><rect class="cls-3" x="70" y="15" width="10" height="1" rx="0.5"/><rect class="cls-3" x="70" y="19" width="10" height="1" rx="0.5"/></g></g></svg>