<svg xmlns="http://www.w3.org/2000/svg" viewBox="0 0 120 30"><defs><style>.cls-1,.cls-4{fill:#3d6be5;}.cls-1{opacity:0;}.cls-2{opacity:0.85;}.cls-3{opacity:0.35;}.cls-5{fill:#fff;}.cls-6{fill:#3257ca;}</style></defs><title>最大化-浅色主题</title><g id="layer1"><g id="active-center"><rect id="底图" class="cls-1" width="30" height="30" rx="4"/><path class="cls-2" d="M19,10a1,1,0,0,1,1,1v8a1,1,0,0,1-1,1H11a1,1,0,0,1-1-1V11a1,1,0,0,1,1-1h8m0-1H11a2,2,0,0,0-2,2v8a2,2,0,0,0,2,2h8a2,2,0,0,0,2-2V11a2,2,0,0,0-2-2Z"/></g><g id="inactive-center"><rect id="底图-2" data-name="底图" class="cls-1" x="90" width="30" height="30" rx="4"/><path class="cls-3" d="M109,10a1,1,0,0,1,1,1v8a1,1,0,0,1-1,1h-8a1,1,0,0,1-1-1V11a1,1,0,0,1,1-1h8m0-1h-8a2,2,0,0,0-2,2v8a2,2,0,0,0,2,2h8a2,2,0,0,0,2-2V11a2,2,0,0,0-2-2Z"/></g><g id="hover-center"><rect id="底图-3" data-name="底图" class="cls-4" x="30" width="30" height="30" rx="4"/><path class="cls-5" d="M49,10a1,1,0,0,1,1,1v8a1,1,0,0,1-1,1H41a1,1,0,0,1-1-1V11a1,1,0,0,1,1-1h8m0-1H41a2,2,0,0,0-2,2v8a2,2,0,0,0,2,2h8a2,2,0,0,0,2-2V11a2,2,0,0,0-2-2Z"/></g><g id="pressed-center"><rect id="底图-4" data-name="底图" class="cls-6" x="60" width="30" height="30" rx="4"/><path class="cls-5" d="M79,10a1,1,0,0,1,1,1v8a1,1,0,0,1-1,1H71a1,1,0,0,1-1-1V11a1,1,0,0,1,1-1h8m0-1H71a2,2,0,0,0-2,2v8a2,2,0,0,0,2,2h8a2,2,0,0,0,2-2V11a2,2,0,0,0-2-2Z"/></g></g></svg>