<svg xmlns="http://www.w3.org/2000/svg" viewBox="0 0 120 30"><defs><style>.cls-1,.cls-4{fill:#3d6be5;}.cls-1{opacity:0;}.cls-2{opacity:0.85;}.cls-3{opacity:0.35;}.cls-5{fill:#fff;}.cls-6{fill:#3257ca;}</style></defs><title>还原-浅色主题</title><g id="layer1"><g id="active-center"><rect id="底图" class="cls-1" width="30" height="30" rx="4"/><path class="cls-2" d="M19,8H13a2,2,0,0,0-2,2v1H10a2,2,0,0,0-2,2v6a2,2,0,0,0,2,2h6a2,2,0,0,0,2-2V18h1a2,2,0,0,0,2-2V10A2,2,0,0,0,19,8ZM17,19a1,1,0,0,1-1,1H10a1,1,0,0,1-1-1V13a1,1,0,0,1,1-1h6a1,1,0,0,1,1,1Zm3-3a1,1,0,0,1-1,1H18V13a2,2,0,0,0-2-2H12V10a1,1,0,0,1,1-1h6a1,1,0,0,1,1,1Z"/></g><g id="inactive-center"><rect id="底图-2" data-name="底图" class="cls-1" x="90" width="30" height="30" rx="4"/><path class="cls-3" d="M109,8h-6a2,2,0,0,0-2,2v1h-1a2,2,0,0,0-2,2v6a2,2,0,0,0,2,2h6a2,2,0,0,0,2-2V18h1a2,2,0,0,0,2-2V10A2,2,0,0,0,109,8Zm-2,11a1,1,0,0,1-1,1h-6a1,1,0,0,1-1-1V13a1,1,0,0,1,1-1h6a1,1,0,0,1,1,1Zm3-3a1,1,0,0,1-1,1h-1V13a2,2,0,0,0-2-2h-4V10a1,1,0,0,1,1-1h6a1,1,0,0,1,1,1Z"/></g><g id="hover-center"><rect id="底图-3" data-name="底图" class="cls-4" x="30" width="30" height="30" rx="4"/><path class="cls-5" d="M49,8H43a2,2,0,0,0-2,2v1H40a2,2,0,0,0-2,2v6a2,2,0,0,0,2,2h6a2,2,0,0,0,2-2V18h1a2,2,0,0,0,2-2V10A2,2,0,0,0,49,8ZM47,19a1,1,0,0,1-1,1H40a1,1,0,0,1-1-1V13a1,1,0,0,1,1-1h6a1,1,0,0,1,1,1Zm3-3a1,1,0,0,1-1,1H48V13a2,2,0,0,0-2-2H42V10a1,1,0,0,1,1-1h6a1,1,0,0,1,1,1Z"/></g><g id="pressed-center"><rect id="底图-4" data-name="底图" class="cls-6" x="60" width="30" height="30" rx="4"/><path class="cls-5" d="M79,8H73a2,2,0,0,0-2,2v1H70a2,2,0,0,0-2,2v6a2,2,0,0,0,2,2h6a2,2,0,0,0,2-2V18h1a2,2,0,0,0,2-2V10A2,2,0,0,0,79,8ZM77,19a1,1,0,0,1-1,1H70a1,1,0,0,1-1-1V13a1,1,0,0,1,1-1h6a1,1,0,0,1,1,1Zm3-3a1,1,0,0,1-1,1H78V13a2,2,0,0,0-2-2H72V10a1,1,0,0,1,1-1h6a1,1,0,0,1,1,1Z"/></g></g></svg>